<svg xmlns="http://www.w3.org/2000/svg" xmlns:xlink="http://www.w3.org/1999/xlink" viewBox="0 0 812.76 366.4"><defs><style>.cls-1{fill:url(#Unbenannter_Verlauf_67);}.cls-2{fill:url(#Unbenannter_Verlauf_72);}.cls-3{fill:url(#Unbenannter_Verlauf_20);}</style><linearGradient id="Unbenannter_Verlauf_67" y1="155.2" x2="422.61" y2="155.2" gradientUnits="userSpaceOnUse"><stop offset="0.67" stop-color="#0f0a2f" stop-opacity="0"/><stop offset="0.78" stop-color="#0f0a2f" stop-opacity="0.07"/><stop offset="0.86" stop-color="#0f0a2f" stop-opacity="0.29"/><stop offset="0.95" stop-color="#0f0a2f" stop-opacity="0.65"/><stop offset="1" stop-color="#0f0a2f"/></linearGradient><linearGradient id="Unbenannter_Verlauf_72" x1="429.83" y1="185.54" x2="812.76" y2="185.54" gradientUnits="userSpaceOnUse"><stop offset="0" stop-color="#0f0a2f"/><stop offset="0.47" stop-color="#2a1c82"/><stop offset="0.92" stop-color="#462fd8"/></linearGradient><linearGradient id="Unbenannter_Verlauf_20" x1="559.16" y1="366.4" x2="559.16" y2="310.4" gradientUnits="userSpaceOnUse"><stop offset="0" stop-color="#fff"/><stop offset="0.06" stop-color="#fff" stop-opacity="0.9"/><stop offset="0.21" stop-color="#fff" stop-opacity="0.67"/><stop offset="0.35" stop-color="#fff" stop-opacity="0.46"/><stop offset="0.5" stop-color="#fff" stop-opacity="0.3"/><stop offset="0.64" stop-color="#fff" stop-opacity="0.17"/><stop offset="0.77" stop-color="#fff" stop-opacity="0.07"/><stop offset="0.89" stop-color="#fff" stop-opacity="0.02"/><stop offset="1" stop-color="#fff" stop-opacity="0"/></linearGradient></defs><g id="Ebene_2" data-name="Ebene 2"><g id="_07" data-name="07"><path class="cls-1" d="M211.31,0C68,0,0,65.45,0,185c0,52.45,13,94.57,39.53,125.38h343.2c26.75-30.87,39.88-73,39.88-125.38C422.61,66,354.07,0,211.31,0Zm0,293.25c-81.43,0-118.54-40.2-118.54-108.23,0-67.51,37.11-107.2,118.54-107.2S329.84,118,329.84,185C329.84,252.54,292.74,293.25,211.31,293.25Z"/><path class="cls-2" d="M812.76,5.15V83C665.87,155.13,602,273.15,602,365.92H509.2C509.2,273.15,553,155.13,684.43,83H429.83V5.15Z"/><path class="cls-3" d="M514.32,310.4a313.11,313.11,0,0,0-5.12,56H602a231.24,231.24,0,0,1,7.16-56Z"/></g></g></svg>