<svg xmlns="http://www.w3.org/2000/svg" width="54" height="54" viewBox="0 0 54 54"><defs><style>.a{fill:none;}</style></defs><g transform="translate(-0.281 0.49)"><rect class="a" width="54" height="54" transform="translate(0.281 -0.49)"/><path d="M85.5,125.576c12.6,0,19.487-10.437,19.487-19.487,0-.3,0-.592-.02-.885a13.935,13.935,0,0,0,3.417-3.545,13.671,13.671,0,0,1-3.934,1.078,6.873,6.873,0,0,0,3.011-3.788,13.726,13.726,0,0,1-4.349,1.662,6.855,6.855,0,0,0-11.672,6.247A19.445,19.445,0,0,1,77.323,99.7a6.854,6.854,0,0,0,2.12,9.143,6.8,6.8,0,0,1-3.109-.857v.087a6.851,6.851,0,0,0,5.495,6.714,6.838,6.838,0,0,1-3.093.118,6.857,6.857,0,0,0,6.4,4.756A13.743,13.743,0,0,1,76.63,122.6a13.942,13.942,0,0,1-1.63-.1,19.39,19.39,0,0,0,10.5,3.071" transform="translate(-64.848 -85.206)"/></g></svg>